<svg width="52" height="56" viewBox="0 0 52 56" fill="none" xmlns="http://www.w3.org/2000/svg">
<path d="M25.6602 7.16494V1" stroke="black" stroke-width="2" stroke-linecap="round" stroke-linejoin="round"/>
<path d="M50.3195 35.9345C46.5692 49.035 29.2046 53.6073 26.1221 54.3265C25.8187 54.4037 25.5008 54.4037 25.1974 54.3265C22.1149 53.6073 4.75034 49.035 1 35.9345V27.1494C0.999964 26.7167 1.13652 26.295 1.39021 25.9445C1.64389 25.594 2.00176 25.3324 2.4128 25.1972L25.0176 17.6452C25.436 17.5164 25.8835 17.5164 26.3019 17.6452L48.9067 25.1972C49.3178 25.3324 49.6756 25.594 49.9293 25.9445C50.183 26.295 50.3195 26.7167 50.3195 27.1494V35.9345Z" stroke="black" stroke-width="2" stroke-linecap="round" stroke-linejoin="round"/>
<path d="M26.1291 47.6652C23.6902 47.1036 9.9516 43.5341 6.98438 33.3066" stroke="black" stroke-width="2" stroke-linecap="round" stroke-linejoin="round"/>
<path d="M6.98438 9.98273V23.1361L25.5308 16.5551L44.0772 23.1361V9.98273C44.0772 8.32587 42.734 6.98273 41.0772 6.98273H9.98437C8.32752 6.98273 6.98438 8.32587 6.98438 9.98273Z" fill="#FFD550" stroke="black" stroke-width="2"/>
<path d="M25.6602 37.9898V17.5427" stroke="black" stroke-width="2" stroke-linecap="round" stroke-linejoin="round"/>
<path d="M30.9141 36.8963L30.9141 28.5205" stroke="black" stroke-width="2" stroke-linecap="round" stroke-linejoin="round"/>
<path d="M11.7695 17.7516V11.7689" stroke="black" stroke-width="2" stroke-linecap="round" stroke-linejoin="round"/>
<path d="M48.8633 20.1447V9.37579" stroke="black" stroke-width="2" stroke-linecap="round" stroke-linejoin="round"/>
</svg>
